HIERARCHY
ROOT Hips
{
	OFFSET 0.000000 83.214638 0.000000
	CHANNELS 6 Xposition Yposition Zposition Xrotation Yrotation Zrotation
	JOINT Pelvis
	{
		OFFSET 0.000000 0.000000 0.000000
		CHANNELS 3 Xrotation Yrotation Zrotation
		JOINT LeftUpLeg
		{
			OFFSET 8.479700 -4.795502 -0.379100
			CHANNELS 3 Xrotation Yrotation Zrotation
			JOINT LeftLeg
			{
				OFFSET 0.024144 -32.555107 0.112900
				CHANNELS 3 Xrotation Yrotation Zrotation
				JOINT LeftFoot
				{
					OFFSET -0.024144 -32.638630 -3.012600
					CHANNELS 3 Xrotation Yrotation Zrotation
					JOINT LeftToeBase
					{
						OFFSET 0.970200 -13.225400 11.864200
						CHANNELS 3 Xrotation Yrotation Zrotation
						End Site
						{
							OFFSET 0.000000 12.319262 0.000000
						}
					}
					JOINT LFootTongue
					{
						OFFSET 1.142400 -1.059800 6.665200
						CHANNELS 3 Xrotation Yrotation Zrotation
						End Site
						{
							OFFSET 0.000000 12.319262 0.000000
						}
					}
				}
				JOINT LeftPantLeg
				{
					OFFSET 0.918482 -16.533964 -2.284700
					CHANNELS 3 Xrotation Yrotation Zrotation
					End Site
					{
						OFFSET 0.350399 24.744368 0.000000
					}
				}
			}
		}
		JOINT RightUpLeg
		{
			OFFSET -8.479700 -4.795502 -0.379100
			CHANNELS 3 Xrotation Yrotation Zrotation
			JOINT RightLeg
			{
				OFFSET -0.023144 -32.555092 0.112900
				CHANNELS 3 Xrotation Yrotation Zrotation
				JOINT RightFoot
				{
					OFFSET 0.023144 -32.638641 -3.012700
					CHANNELS 3 Xrotation Yrotation Zrotation
					JOINT RightToeBase
					{
						OFFSET -0.970200 -13.225400 11.864200
						CHANNELS 3 Xrotation Yrotation Zrotation
						End Site
						{
							OFFSET 0.000000 12.319244 0.000000
						}
					}
					JOINT RFootTongue
					{
						OFFSET -1.142200 -1.059800 6.665200
						CHANNELS 3 Xrotation Yrotation Zrotation
						End Site
						{
							OFFSET 0.000000 12.319243 0.000000
						}
					}
				}
				JOINT RightPantLeg
				{
					OFFSET -0.919482 -16.533978 -2.284800
					CHANNELS 3 Xrotation Yrotation Zrotation
					End Site
					{
						OFFSET -0.350400 24.744419 0.000000
					}
				}
			}
		}
	}
	JOINT Spine
	{
		OFFSET 0.000000 7.722000 1.166200
		CHANNELS 3 Xrotation Yrotation Zrotation
		JOINT Spine1
		{
			OFFSET 0.000000 12.024101 0.248800
			CHANNELS 3 Xrotation Yrotation Zrotation
			JOINT Spine2
			{
				OFFSET 0.000000 11.502998 -0.491200
				CHANNELS 3 Xrotation Yrotation Zrotation
				JOINT Neck
				{
					OFFSET 0.000000 18.430702 -3.123100
					CHANNELS 3 Xrotation Yrotation Zrotation
					JOINT Head
					{
						OFFSET 0.000000 9.051102 1.034000
						CHANNELS 3 Xrotation Yrotation Zrotation
						JOINT HairB
						{
							OFFSET 0.208400 24.786102 24.822300
							CHANNELS 3 Xrotation Yrotation Zrotation
							End Site
							{
								OFFSET 0.000000 32.263779 0.000000
							}
						}
						JOINT HairA
						{
							OFFSET -7.081100 24.428299 23.196600
							CHANNELS 3 Xrotation Yrotation Zrotation
							End Site
							{
								OFFSET 0.000000 32.263779 0.000000
							}
						}
						JOINT Hat
						{
							OFFSET 16.728800 15.048294 -15.439601
							CHANNELS 3 Xrotation Yrotation Zrotation
							End Site
							{
								OFFSET 0.000000 32.263779 0.000000
							}
						}
					}
				}
				JOINT LeftShoulder
				{
					OFFSET 6.197800 13.665199 -4.064700
					CHANNELS 3 Xrotation Yrotation Zrotation
					JOINT LeftArm
					{
						OFFSET 7.778100 -0.187103 -1.709300
						CHANNELS 3 Xrotation Yrotation Zrotation
						JOINT LeftForeArm
						{
							OFFSET 22.049376 0.000000 0.000000
							CHANNELS 3 Xrotation Yrotation Zrotation
							JOINT LeftHand
							{
								OFFSET 23.009392 0.000000 0.000000
								CHANNELS 3 Xrotation Yrotation Zrotation
								JOINT LeftHandThumb1
								{
									OFFSET 3.507191 -2.063065 3.133727
									CHANNELS 3 Xrotation Yrotation Zrotation
									JOINT LeftHandThumb2
									{
										OFFSET 3.101337 -1.790558 1.790558
										CHANNELS 3 Xrotation Yrotation Zrotation
										JOINT LeftHandThumb3
										{
											OFFSET 3.058640 -1.765907 1.765906
											CHANNELS 3 Xrotation Yrotation Zrotation
											End Site
											{
												OFFSET -0.415260 3.926476 -0.049563
											}
										}
									}
								}
								JOINT LeftHandIndex1
								{
									OFFSET 11.334419 -0.901459 3.706815
									CHANNELS 3 Xrotation Yrotation Zrotation
									JOINT LeftHandIndex2
									{
										OFFSET 3.283112 0.000000 0.000000
										CHANNELS 3 Xrotation Yrotation Zrotation
										JOINT LeftHandIndex3
										{
											OFFSET 3.323853 0.000000 0.000000
											CHANNELS 3 Xrotation Yrotation Zrotation
											End Site
											{
												OFFSET -1.135597 3.097809 0.402452
											}
										}
									}
								}
								JOINT LeftHandMiddle1
								{
									OFFSET 11.335861 0.000000 0.000000
									CHANNELS 3 Xrotation Yrotation Zrotation
									JOINT LeftHandMiddle2
									{
										OFFSET 3.410492 0.000000 0.000000
										CHANNELS 3 Xrotation Yrotation Zrotation
										JOINT LeftHandMiddle3
										{
											OFFSET 3.312172 0.000000 0.000000
											CHANNELS 3 Xrotation Yrotation Zrotation
											End Site
											{
												OFFSET -1.150200 3.080154 0.400270
											}
										}
									}
								}
								JOINT LeftHandRing1
								{
									OFFSET 11.514786 -0.013176 -3.003090
									CHANNELS 3 Xrotation Yrotation Zrotation
									JOINT LeftHandRing2
									{
										OFFSET 3.053307 0.000000 0.000000
										CHANNELS 3 Xrotation Yrotation Zrotation
										JOINT LeftHandRing3
										{
											OFFSET 3.295807 0.000000 0.000000
											CHANNELS 3 Xrotation Yrotation Zrotation
											End Site
											{
												OFFSET -1.281006 3.013344 0.375733
											}
										}
									}
								}
								JOINT LeftHandPinky1
								{
									OFFSET 10.518692 -0.960396 -5.730441
									CHANNELS 3 Xrotation Yrotation Zrotation
									JOINT LeftHandPinky2
									{
										OFFSET 2.861649 0.000000 0.000000
										CHANNELS 3 Xrotation Yrotation Zrotation
										JOINT LeftHandPinky3
										{
											OFFSET 2.863380 0.000000 0.000000
											CHANNELS 3 Xrotation Yrotation Zrotation
											End Site
											{
												OFFSET -0.843597 2.711159 0.369971
											}
										}
									}
								}
							}
							JOINT LSleeve
							{
								OFFSET 6.676277 -0.344902 -1.011730
								CHANNELS 3 Xrotation Yrotation Zrotation
								End Site
								{
									OFFSET 0.000000 14.885353 0.000000
								}
							}
						}
					}
				}
				JOINT RightShoulder
				{
					OFFSET -6.197800 13.665199 -4.064700
					CHANNELS 3 Xrotation Yrotation Zrotation
					JOINT RightArm
					{
						OFFSET -7.778100 -0.187103 -1.709300
						CHANNELS 3 Xrotation Yrotation Zrotation
						JOINT RightForeArm
						{
							OFFSET -22.049376 0.000000 0.000000
							CHANNELS 3 Xrotation Yrotation Zrotation
							JOINT RightHand
							{
								OFFSET -23.009392 0.000000 0.000000
								CHANNELS 3 Xrotation Yrotation Zrotation
								JOINT RightHandThumb1
								{
									OFFSET -3.507191 -2.063065 3.133727
									CHANNELS 3 Xrotation Yrotation Zrotation
									JOINT RightHandThumb2
									{
										OFFSET -3.101337 -1.790558 1.790558
										CHANNELS 3 Xrotation Yrotation Zrotation
										JOINT RightHandThumb3
										{
											OFFSET -3.058640 -1.765907 1.765906
											CHANNELS 3 Xrotation Yrotation Zrotation
											End Site
											{
												OFFSET 0.415260 3.926476 -0.049563
											}
										}
									}
								}
								JOINT RightHandIndex1
								{
									OFFSET -11.334419 -0.901459 3.706815
									CHANNELS 3 Xrotation Yrotation Zrotation
									JOINT RightHandIndex2
									{
										OFFSET -3.283112 0.000000 0.000000
										CHANNELS 3 Xrotation Yrotation Zrotation
										JOINT RightHandIndex3
										{
											OFFSET -3.323853 0.000000 0.000000
											CHANNELS 3 Xrotation Yrotation Zrotation
											End Site
											{
												OFFSET 1.135597 3.097809 0.402452
											}
										}
									}
								}
								JOINT RightHandMiddle1
								{
									OFFSET -11.335861 0.000000 0.000000
									CHANNELS 3 Xrotation Yrotation Zrotation
									JOINT RightHandMiddle2
									{
										OFFSET -3.410492 0.000000 0.000000
										CHANNELS 3 Xrotation Yrotation Zrotation
										JOINT RightHandMiddle3
										{
											OFFSET -3.312172 0.000000 0.000000
											CHANNELS 3 Xrotation Yrotation Zrotation
											End Site
											{
												OFFSET 1.150200 3.080154 0.400270
											}
										}
									}
								}
								JOINT RightHandRing1
								{
									OFFSET -11.514786 -0.013176 -3.003090
									CHANNELS 3 Xrotation Yrotation Zrotation
									JOINT RightHandRing2
									{
										OFFSET -3.053307 0.000000 0.000000
										CHANNELS 3 Xrotation Yrotation Zrotation
										JOINT RightHandRing3
										{
											OFFSET -3.295807 0.000000 0.000000
											CHANNELS 3 Xrotation Yrotation Zrotation
											End Site
											{
												OFFSET 1.281006 3.013344 0.375733
											}
										}
									}
								}
								JOINT RightHandPinky1
								{
									OFFSET -10.518692 -0.960396 -5.730441
									CHANNELS 3 Xrotation Yrotation Zrotation
									JOINT RightHandPinky2
									{
										OFFSET -2.861649 0.000000 0.000000
										CHANNELS 3 Xrotation Yrotation Zrotation
										JOINT RightHandPinky3
										{
											OFFSET -2.863380 0.000000 0.000000
											CHANNELS 3 Xrotation Yrotation Zrotation
											End Site
											{
												OFFSET 0.843597 2.711159 0.369971
											}
										}
									}
								}
							}
							JOINT RSleeve
							{
								OFFSET -6.676277 -0.344902 -1.011730
								CHANNELS 3 Xrotation Yrotation Zrotation
								End Site
								{
									OFFSET 0.000000 14.885353 0.000000
								}
							}
						}
					}
				}
				JOINT Backpack
				{
					OFFSET 0.000000 -2.471497 36.677502
					CHANNELS 3 Xrotation Yrotation Zrotation
					End Site
					{
						OFFSET 0.000000 20.427315 0.000000
					}
				}
				JOINT Hood
				{
					OFFSET 0.000000 18.754097 -10.431000
					CHANNELS 3 Xrotation Yrotation Zrotation
					JOINT Hood1
					{
						OFFSET 0.000000 -5.011002 -7.685901
						CHANNELS 3 Xrotation Yrotation Zrotation
						End Site
						{
							OFFSET 0.000000 9.175140 0.000000
						}
					}
				}
				JOINT LHoodieString
				{
					OFFSET 5.250500 16.397697 3.089900
					CHANNELS 3 Xrotation Yrotation Zrotation
					JOINT LHoodieString1
					{
						OFFSET 0.257700 -6.364304 3.694600
						CHANNELS 3 Xrotation Yrotation Zrotation
						JOINT LHoodieString2
						{
							OFFSET 0.000000 -9.643799 2.679100
							CHANNELS 3 Xrotation Yrotation Zrotation
							End Site
							{
								OFFSET 0.000000 10.009018 0.000000
							}
						}
					}
				}
				JOINT RHoodieString
				{
					OFFSET -5.250500 16.397697 3.089900
					CHANNELS 3 Xrotation Yrotation Zrotation
					JOINT RHoodieString1
					{
						OFFSET -0.257700 -6.364304 3.694600
						CHANNELS 3 Xrotation Yrotation Zrotation
						JOINT RHoodieString2
						{
							OFFSET 0.000000 -9.643799 2.679100
							CHANNELS 3 Xrotation Yrotation Zrotation
							End Site
							{
								OFFSET 0.000000 10.009018 0.000000
							}
						}
					}
				}
			}
			JOINT LBackpack_Strap
			{
				OFFSET 15.223200 -7.719803 -6.610900
				CHANNELS 3 Xrotation Yrotation Zrotation
				End Site
				{
					OFFSET 0.000000 16.040596 0.000000
				}
			}
			JOINT RBackpack_Strap
			{
				OFFSET -15.223000 -7.719803 -6.610900
				CHANNELS 3 Xrotation Yrotation Zrotation
				End Site
				{
					OFFSET 0.000000 16.040596 0.000000
				}
			}
		}
	}
	JOINT BoyFacialAnim_Joint
	{
		OFFSET 1.000000 -82.208099 -1.550900
		CHANNELS 3 Xrotation Yrotation Zrotation
		End Site
		{
			OFFSET 0.000000 30.012791 0.000000
		}
	}
}
MOTION
Frames: 4
Frame Time: 0.033333
-68.253151 73.330307 34.771389 304.171546 105.789242 -299.034179 0.000000 0.000001 -0.000000 -23.662840 2.727052 -15.922003 48.363081 -8.418265 3.399031 -29.186618 -11.180703 13.383370 0.000000 -0.000000 0.000000 0.000000 -0.000000 0.000000 -0.000003 -0.000001 -0.000001 -75.371336 -48.935068 -25.125780 40.370598 9.191934 -10.204102 6.286168 21.071552 -19.553302 0.000000 -0.000001 0.000000 0.000000 -0.000001 0.000000 -0.000001 -0.000006 -0.000000 29.162825 -4.323020 2.031696 9.990914 -0.597984 2.039412 10.007057 -0.525593 1.971216 7.349093 -8.185736 -3.218890 12.975882 -47.865925 14.477225 -0.000000 -0.000000 0.000001 -0.000000 -0.000000 0.000001 -0.000000 -0.000000 0.000001 -0.599826 8.963590 1.309926 15.940724 -18.082050 -51.216293 -0.000290 -96.760408 -0.000218 -11.844673 5.606195 3.110946 -1.646357 9.743376 7.050036 4.195578 10.985480 0.982394 0.000002 -0.000001 -0.000001 0.078026 1.035681 -8.615380 0.325680 2.096523 -17.658409 0.000002 0.000001 -0.000003 0.274449 1.928257 -16.199187 0.627506 2.876640 -24.606433 0.000002 -0.000000 0.000000 0.688640 3.006353 -25.797473 1.130114 3.784720 -33.240864 0.000000 0.000002 -0.000002 3.411451 7.209842 -33.405134 1.623471 0.358797 -40.289681 0.000002 -0.000002 -0.000002 0.000002 0.000001 -0.000001 0.533898 6.412192 11.660752 -28.778777 16.203852 38.180594 0.000026 120.954809 -0.000023 -11.859315 -3.772345 -5.542467 -1.923205 -8.192742 -7.306389 4.851030 -10.948744 -0.393107 -0.000000 -0.000002 -0.000001 0.000057 0.030815 -0.252841 0.245506 -1.834839 15.240244 -0.000003 0.000000 0.000002 0.054352 -0.869398 7.153005 0.404652 -2.341702 19.606302 0.000001 0.000001 -0.000002 0.284465 -1.972240 16.413503 0.664052 -2.970276 25.199315 0.000002 0.000001 0.000002 0.602716 -2.836443 23.988635 0.903589 -3.432810 29.486418 0.000000 -0.000000 0.000002 -0.000002 -0.000001 -0.000002 0.000001 -0.000001 -0.000000 0.000001 -0.000001 -0.000000 0.000001 -0.000001 -0.000000 0.000001 -0.000001 -0.000000 0.000001 -0.000001 -0.000000 0.000001 0.000000 0.000000 0.000001 -0.000001 -0.000000 0.000001 -0.000001 -0.000000 0.000001 0.000000 0.000000 0.000002 0.000000 -0.000000 0.000002 0.000000 -0.000000 0.000000 0.000001 -0.000000 
-66.287193 74.236160 34.885319 304.111577 106.314408 -298.710810 0.000000 -0.000001 0.000000 -25.908661 5.456902 -14.552095 52.646859 -8.703832 3.487327 -21.971274 -10.060559 11.639245 0.000000 0.000000 0.000000 0.000000 0.000000 0.000000 -0.000000 0.000000 -0.000000 -73.999328 -49.037388 -25.421566 40.288161 9.021016 -10.313274 4.495692 22.714602 -18.416413 -0.000000 0.000000 -0.000000 -0.000000 0.000000 -0.000000 0.000000 0.000000 0.000000 28.016977 -4.259731 2.261601 9.948349 -0.588585 1.870488 9.962476 -0.532799 1.804652 7.805112 -8.085693 -3.327039 12.910400 -47.781804 15.014170 -0.000000 -0.000001 -0.000000 -0.000000 -0.000001 -0.000000 -0.000000 -0.000001 -0.000000 -0.609806 9.464555 0.855065 15.813566 -19.495639 -52.355217 -0.113560 -93.093245 -0.113098 -11.644235 5.805691 3.180789 -1.651567 9.943478 7.080498 4.203864 11.085915 0.989982 0.000002 0.000002 0.000002 0.096422 1.150613 -9.580203 0.314797 2.062027 -17.358511 -0.000002 0.000001 -0.000002 0.300317 2.015157 -16.951403 0.635810 2.894690 -24.771469 0.000003 0.000002 0.000002 0.714780 3.059794 -26.291719 1.178502 3.857367 -33.966941 -0.000001 -0.000002 -0.000006 3.448114 7.227308 -33.696977 1.716073 0.465774 -41.462916 -0.000000 -0.000001 0.000005 -0.000000 -0.000001 0.000001 0.559258 7.625023 10.606299 -22.042906 14.442705 38.100209 -0.000055 121.709395 0.000054 -12.061614 -4.827403 -5.854577 -1.924915 -8.269337 -7.318461 4.854519 -10.987199 -0.395830 0.000000 0.000001 -0.000000 0.000023 -0.010507 0.086184 0.216077 -1.723334 14.293025 0.000000 0.000000 0.000000 0.056793 -0.888548 7.311486 0.378875 -2.268081 18.965192 -0.000000 0.000000 0.000003 0.282274 -1.964706 16.348980 0.649992 -2.940233 24.926680 -0.000001 0.000002 -0.000001 0.590685 -2.809212 23.743652 0.905208 -3.435643 29.513302 0.000001 0.000000 0.000000 0.000001 -0.000000 -0.000003 0.000002 -0.000001 -0.000000 0.000002 -0.000001 -0.000000 0.000002 -0.000001 -0.000000 0.000002 -0.000001 -0.000000 0.000002 -0.000001 -0.000000 0.000002 -0.000000 0.000000 0.000002 -0.000001 -0.000000 0.000002 -0.000001 -0.000000 0.000002 -0.000000 0.000000 -0.000000 0.000000 0.000000 -0.000000 0.000000 0.000000 0.000000 -0.000001 0.000000 
-64.573814 74.668785 35.150108 304.401287 106.150634 -299.018059 -0.000000 0.000000 -0.000000 -34.417487 7.874401 -11.134445 65.328437 -9.715789 3.758362 -10.225330 -4.279622 1.174845 0.000001 0.000000 0.000000 0.000001 0.000000 0.000000 0.000003 -0.000001 0.000001 -71.347787 -48.039200 -23.906444 41.030845 8.561879 -10.550508 2.024902 21.619144 -16.968890 -0.000000 -0.000001 -0.000000 -0.000000 -0.000001 -0.000000 -0.000000 0.000000 0.000001 27.300640 -3.869321 2.597623 9.924051 -0.568161 1.640626 9.935424 -0.526766 1.578753 7.926874 -7.956592 -3.469856 12.963073 -47.446134 15.649213 -0.000000 0.000003 -0.000001 -0.000000 0.000003 -0.000001 -0.000000 0.000003 -0.000001 -0.550349 10.309575 -0.335765 13.871984 -21.384743 -54.224769 0.001387 -85.872389 0.001484 -11.358059 5.974007 3.262629 -1.656053 10.112363 7.106244 4.210890 11.170682 0.996362 -0.000001 -0.000000 -0.000000 0.110385 1.230521 -10.252725 0.322372 2.086081 -17.567595 -0.000006 0.000000 -0.000004 0.306561 2.035510 -17.128096 0.656029 2.938057 -25.168774 0.000000 -0.000001 -0.000003 0.691527 3.012354 -25.852833 1.220660 3.919084 -34.588645 0.000002 0.000001 -0.000005 3.329345 7.169921 -32.749347 1.781922 0.539240 -42.280814 0.000001 -0.000002 0.000001 0.000000 -0.000001 0.000001 0.586188 9.190553 9.719964 -16.058710 14.559810 38.347626 -0.000024 121.094814 0.000031 -12.052992 -5.461284 -6.207798 -1.930011 -8.489155 -7.353164 4.864605 -11.097577 -0.403635 -0.000001 -0.000002 0.000000 0.000722 -0.099996 0.820560 0.203146 -1.671744 13.856336 0.000000 0.000001 0.000000 0.061877 -0.927451 7.633582 0.366669 -2.232277 18.654384 0.000002 0.000000 0.000003 0.275856 -1.942779 16.161372 0.641207 -2.921328 24.755056 0.000000 -0.000001 0.000000 0.561583 -2.742247 23.143370 0.902158 -3.430276 29.462537 -0.000000 -0.000001 0.000000 0.000001 -0.000000 -0.000004 -0.000001 0.000000 0.000000 -0.000001 0.000000 0.000000 -0.000001 0.000000 0.000000 -0.000001 0.000000 0.000000 -0.000001 0.000000 0.000000 0.000001 -0.000000 -0.000000 -0.000001 0.000000 0.000000 -0.000001 0.000000 0.000000 0.000001 -0.000000 -0.000000 0.000002 0.000000 -0.000000 0.000002 0.000000 -0.000000 -0.000000 0.000000 -0.000000 
-63.181541 74.455124 35.557198 307.879820 104.940106 -302.922305 0.000000 0.000000 -0.000000 -43.542234 8.550802 -9.191440 82.239514 -6.590023 4.141700 -5.313419 -1.026013 0.441516 0.000002 0.000000 -0.000000 0.000002 0.000000 0.000000 0.000003 -0.000000 0.000000 -67.859862 -46.185077 -21.614050 43.575763 7.760237 -10.864353 -1.193042 18.641719 -15.663295 0.000000 0.000000 0.000000 0.000000 0.000000 0.000000 0.000001 0.000001 -0.000000 27.749807 -3.369232 3.117006 9.772478 -0.550761 1.329146 9.780597 -0.524454 1.273960 7.921232 -7.847784 -3.572333 13.925492 -47.015986 16.494328 0.000000 -0.000001 -0.000000 0.000000 -0.000001 -0.000000 0.000000 -0.000001 -0.000000 -0.424660 11.053916 -1.699873 10.850525 -23.296233 -56.692855 0.000175 -76.403247 0.000186 -11.120757 6.241839 3.333124 -1.663222 10.376785 7.146589 4.221821 11.303388 1.006375 0.000001 0.000000 0.000001 0.108362 1.219193 -10.157383 0.340180 2.141488 -18.050457 -0.000003 0.000000 -0.000003 0.290528 1.982756 -16.670508 0.675091 2.978219 -25.538009 0.000001 0.000000 -0.000003 0.644373 2.913135 -24.940386 1.236617 3.942085 -34.821466 0.000002 -0.000000 0.000001 3.168311 7.088187 -31.451785 1.793626 0.552080 -42.424904 -0.000001 -0.000001 -0.000000 0.000002 -0.000000 0.000000 0.596617 10.546984 9.463131 -12.468746 17.143985 38.708574 -0.000031 119.744841 0.000029 -12.066562 -5.473523 -6.460549 -1.935708 -8.731600 -7.391475 4.875658 -11.219315 -0.412208 0.000001 -0.000005 -0.000002 0.000848 -0.109290 0.896763 0.208123 -1.691805 14.025994 -0.000000 -0.000001 0.000005 0.057994 -0.898019 7.389828 0.369636 -2.240973 18.729793 0.000001 0.000001 0.000003 0.254461 -1.867419 15.517754 0.639039 -2.916598 24.712287 -0.000001 -0.000001 0.000000 0.516082 -2.633319 22.172561 0.894842 -3.417298 29.339877 0.000000 -0.000001 -0.000000 0.000001 -0.000001 -0.000003 -0.000003 -0.000000 0.000000 -0.000003 -0.000000 0.000000 -0.000003 -0.000000 0.000000 -0.000003 -0.000000 0.000000 -0.000003 -0.000000 -0.000000 -0.000002 -0.000000 0.000000 -0.000003 -0.000000 0.000000 -0.000003 -0.000000 -0.000000 -0.000002 -0.000000 0.000000 -0.000003 0.000000 -0.000000 -0.000003 0.000000 -0.000000 0.000000 0.000000 -0.000000 
